<svg width="100" height="100" viewBox="0 0 100 100" fill="none" xmlns="http://www.w3.org/2000/svg">
<path d="M49.9997 70.8335C51.1802 70.8335 52.1705 70.4335 52.9705 69.6335C53.7705 68.8335 54.1691 67.8446 54.1663 66.6668C54.1663 65.4863 53.7663 64.496 52.9663 63.696C52.1663 62.896 51.1775 62.4974 49.9997 62.5002C48.8191 62.5002 47.8288 62.9002 47.0288 63.7002C46.2288 64.5002 45.8302 65.4891 45.833 66.6668C45.833 67.8474 46.233 68.8377 47.033 69.6377C47.833 70.4377 48.8219 70.8363 49.9997 70.8335ZM45.833 54.1668H54.1663V29.1668H45.833V54.1668ZM49.9997 91.6668C44.2358 91.6668 38.8191 90.5724 33.7497 88.3835C28.6802 86.1946 24.2705 83.2266 20.5205 79.4793C16.7705 75.7293 13.8025 71.3196 11.6163 66.2502C9.43023 61.1807 8.33579 55.7641 8.33301 50.0002C8.33301 44.2363 9.42745 38.8196 11.6163 33.7502C13.8052 28.6807 16.7733 24.271 20.5205 20.521C24.2705 16.771 28.6802 13.8029 33.7497 11.6168C38.8191 9.43072 44.2358 8.33627 49.9997 8.3335C55.7636 8.3335 61.1802 9.42794 66.2497 11.6168C71.3191 13.8057 75.7288 16.7738 79.4788 20.521C83.2288 24.271 86.1983 28.6807 88.3872 33.7502C90.5761 38.8196 91.6691 44.2363 91.6663 50.0002C91.6663 55.7641 90.5719 61.1807 88.383 66.2502C86.1941 71.3196 83.2261 75.7293 79.4788 79.4793C75.7288 83.2293 71.3191 86.1988 66.2497 88.3877C61.1802 90.5766 55.7636 91.6696 49.9997 91.6668ZM49.9997 83.3335C59.3052 83.3335 67.1872 80.1043 73.6455 73.646C80.1038 67.1877 83.333 59.3057 83.333 50.0002C83.333 40.6946 80.1038 32.8127 73.6455 26.3543C67.1872 19.896 59.3052 16.6668 49.9997 16.6668C40.6941 16.6668 32.8122 19.896 26.3538 26.3543C19.8955 32.8127 16.6663 40.6946 16.6663 50.0002C16.6663 59.3057 19.8955 67.1877 26.3538 73.646C32.8122 80.1043 40.6941 83.3335 49.9997 83.3335Z" fill="white"/>
</svg>
