<svg width="38" height="38" viewBox="0 0 38 38" fill="none" xmlns="http://www.w3.org/2000/svg">
<g clip-path="url(#clip0_143_400)">
<path d="M19 38C15.2422 38 11.5687 36.8857 8.44417 34.7979C5.31964 32.7102 2.88436 29.7428 1.4463 26.271C0.00823243 22.7992 -0.368031 18.9789 0.365088 15.2933C1.09821 11.6077 2.90778 8.22218 5.56498 5.56498C8.22218 2.90778 11.6077 1.09821 15.2933 0.365088C18.9789 -0.368031 22.7992 0.00823243 26.271 1.4463C29.7428 2.88436 32.7102 5.31964 34.7979 8.44417C36.8857 11.5687 38 15.2422 38 19C37.9946 24.0374 35.991 28.867 32.429 32.429C28.867 35.991 24.0374 37.9946 19 38V38ZM19 3.16668C15.8685 3.16668 12.8073 4.09528 10.2035 5.83507C7.5997 7.57486 5.5703 10.0477 4.37192 12.9409C3.17353 15.834 2.85998 19.0176 3.47091 22.0889C4.08184 25.1603 5.58982 27.9815 7.80415 30.1959C10.0185 32.4102 12.8397 33.9182 15.9111 34.5291C18.9824 35.14 22.166 34.8265 25.0592 33.6281C27.9523 32.4297 30.4252 30.4003 32.1649 27.7965C33.9047 25.1928 34.8333 22.1315 34.8333 19C34.8287 14.8022 33.1591 10.7776 30.1908 7.80924C27.2224 4.84092 23.1979 3.17129 19 3.16668V3.16668Z" fill="black"/>
<path d="M14.2498 27.8967C13.8299 27.8967 13.4272 27.7299 13.1303 27.433C12.8333 27.1361 12.6665 26.7333 12.6665 26.3134V11.6866C12.6665 11.4086 12.7397 11.1356 12.8786 10.8949C13.0176 10.6542 13.2175 10.4543 13.4582 10.3154C13.6989 10.1764 13.9719 10.1033 14.2498 10.1033C14.5278 10.1033 14.8008 10.1764 15.0415 10.3154L27.7082 17.6288C27.9488 17.7678 28.1487 17.9677 28.2877 18.2083C28.4266 18.449 28.4998 18.7221 28.4998 19C28.4998 19.2779 28.4266 19.5509 28.2877 19.7916C28.1487 20.0323 27.9488 20.2322 27.7082 20.3711L15.0415 27.6846C14.8008 27.8235 14.5278 27.8967 14.2498 27.8967ZM15.8332 14.4289V23.5711L23.7498 19L15.8332 14.4289Z" fill="black"/>
</g>
<defs>
<clipPath id="clip0_143_400">
<rect width="38" height="38" fill="white"/>
</clipPath>
</defs>
</svg>
